<mxfile host="65bd71144e">
    <diagram name="Page-1" id="e7e014a7-5840-1c2e-5031-d8a46d1fe8dd">
        <mxGraphModel dx="1261" dy="881" grid="1" gridSize="10" guides="1" tooltips="1" connect="1" arrows="1" fold="1" page="1" pageScale="1" pageWidth="1169" pageHeight="826" background="none" math="0" shadow="0">
            <root>
                <mxCell id="0"/>
                <mxCell id="1" parent="0"/>
                <mxCell id="2" value="Main Thread" style="swimlane;whiteSpace=wrap" parent="1" vertex="1">
                    <mxGeometry x="164.5" y="128" width="280" height="682" as="geometry"/>
                </mxCell>
                <mxCell id="5" value="" style="ellipse;shape=startState;fillColor=#000000;strokeColor=#ff0000;" parent="2" vertex="1">
                    <mxGeometry x="100" y="40" width="30" height="30" as="geometry"/>
                </mxCell>
                <mxCell id="6" value="" style="edgeStyle=elbowEdgeStyle;elbow=horizontal;verticalAlign=bottom;endArrow=open;endSize=8;strokeColor=#FF0000;endFill=1;rounded=0;entryX=0.496;entryY=-0.013;entryDx=0;entryDy=0;entryPerimeter=0;" parent="2" source="5" target="7" edge="1">
                    <mxGeometry x="100" y="40" as="geometry">
                        <mxPoint x="115" y="110" as="targetPoint"/>
                    </mxGeometry>
                </mxCell>
                <mxCell id="7" value="idle" style="" parent="2" vertex="1">
                    <mxGeometry x="60" y="110" width="110" height="50" as="geometry"/>
                </mxCell>
                <mxCell id="8" value="client command" style="" parent="2" vertex="1">
                    <mxGeometry x="60" y="220" width="110" height="50" as="geometry"/>
                </mxCell>
                <mxCell id="9" value="" style="endArrow=open;strokeColor=#FF0000;endFill=1;rounded=0;entryX=0.498;entryY=0.026;entryDx=0;entryDy=0;entryPerimeter=0;" parent="2" target="8" edge="1">
                    <mxGeometry relative="1" as="geometry">
                        <mxPoint x="115.5" y="162" as="sourcePoint"/>
                        <mxPoint x="115.5" y="222" as="targetPoint"/>
                    </mxGeometry>
                </mxCell>
                <mxCell id="10" value="select Bot Thread" style="" parent="2" vertex="1">
                    <mxGeometry x="60" y="325" width="110" height="50" as="geometry"/>
                </mxCell>
                <mxCell id="11" value="" style="endArrow=open;strokeColor=#FF0000;endFill=1;rounded=0;exitX=0.498;exitY=1.085;exitDx=0;exitDy=0;exitPerimeter=0;entryX=0.489;entryY=0.005;entryDx=0;entryDy=0;entryPerimeter=0;" parent="2" source="8" target="10" edge="1">
                    <mxGeometry relative="1" as="geometry">
                        <mxPoint x="115.5" y="282" as="sourcePoint"/>
                        <mxPoint x="114.5" y="322" as="targetPoint"/>
                    </mxGeometry>
                </mxCell>
                <mxCell id="12" value="" style="edgeStyle=elbowEdgeStyle;elbow=horizontal;strokeColor=#FF0000;endArrow=open;endFill=1;rounded=0;exitX=0.016;exitY=0.495;exitDx=0;exitDy=0;exitPerimeter=0;" parent="2" source="10" edge="1">
                    <mxGeometry width="100" height="100" relative="1" as="geometry">
                        <mxPoint x="55.5" y="350" as="sourcePoint"/>
                        <mxPoint x="55.5" y="135" as="targetPoint"/>
                        <Array as="points">
                            <mxPoint x="30" y="250"/>
                        </Array>
                    </mxGeometry>
                </mxCell>
                <mxCell id="79" style="edgeStyle=none;html=1;entryX=0.452;entryY=1.101;entryDx=0;entryDy=0;entryPerimeter=0;exitX=0.37;exitY=-0.045;exitDx=0;exitDy=0;exitPerimeter=0;" edge="1" parent="2" source="77" target="10">
                    <mxGeometry relative="1" as="geometry">
                        <Array as="points"/>
                    </mxGeometry>
                </mxCell>
                <mxCell id="83" style="edgeStyle=none;html=1;entryX=0.006;entryY=0.672;entryDx=0;entryDy=0;entryPerimeter=0;exitX=-0.001;exitY=0.661;exitDx=0;exitDy=0;exitPerimeter=0;" edge="1" parent="2" source="77" target="82">
                    <mxGeometry relative="1" as="geometry">
                        <Array as="points">
                            <mxPoint x="25.5" y="622"/>
                        </Array>
                    </mxGeometry>
                </mxCell>
                <mxCell id="77" value="Event Processor" style="" vertex="1" parent="2">
                    <mxGeometry x="60" y="552" width="140" height="50" as="geometry"/>
                </mxCell>
                <mxCell id="82" value="Message dÃ©finition" style="" vertex="1" parent="2">
                    <mxGeometry x="60" y="622" width="140" height="50" as="geometry"/>
                </mxCell>
                <mxCell id="3" value="Bot Thread" style="swimlane;whiteSpace=wrap" parent="1" vertex="1">
                    <mxGeometry x="445" y="128" width="985" height="682" as="geometry"/>
                </mxCell>
                <mxCell id="15" value="idle" style="" parent="3" vertex="1">
                    <mxGeometry x="20" y="110" width="110" height="50" as="geometry"/>
                </mxCell>
                <mxCell id="16" value="check for &#10;new commands" style="" parent="3" vertex="1">
                    <mxGeometry x="20" y="220" width="110" height="50" as="geometry"/>
                </mxCell>
                <mxCell id="17" value="" style="endArrow=open;strokeColor=#FF0000;endFill=1;rounded=0" parent="3" edge="1">
                    <mxGeometry relative="1" as="geometry">
                        <mxPoint x="75" y="162" as="sourcePoint"/>
                        <mxPoint x="75" y="222" as="targetPoint"/>
                    </mxGeometry>
                </mxCell>
                <mxCell id="18" value="command queue" style="" parent="3" vertex="1">
                    <mxGeometry x="20" y="325" width="110" height="50" as="geometry"/>
                </mxCell>
                <mxCell id="19" value="" style="endArrow=open;strokeColor=#FF0000;endFill=1;rounded=0" parent="3" edge="1">
                    <mxGeometry relative="1" as="geometry">
                        <mxPoint x="75" y="322" as="targetPoint"/>
                        <mxPoint x="75" y="272" as="sourcePoint"/>
                    </mxGeometry>
                </mxCell>
                <mxCell id="21" value="queue empty" style="rhombus;fillColor=#ffffc0;strokeColor=#ff0000;fontColor=#4D4D4D;" parent="3" vertex="1">
                    <mxGeometry x="150" y="225" width="80" height="40" as="geometry"/>
                </mxCell>
                <mxCell id="22" value="yes" style="edgeStyle=elbowEdgeStyle;elbow=horizontal;align=left;verticalAlign=bottom;endArrow=open;endSize=8;strokeColor=#FF0000;exitX=0.5;exitY=0;endFill=1;rounded=0;entryX=0.75;entryY=0.5;entryPerimeter=0" parent="3" source="21" target="25" edge="1">
                    <mxGeometry x="-1" relative="1" as="geometry">
                        <mxPoint x="160" y="150" as="targetPoint"/>
                        <Array as="points">
                            <mxPoint x="190" y="180"/>
                        </Array>
                    </mxGeometry>
                </mxCell>
                <mxCell id="23" value="no" style="edgeStyle=elbowEdgeStyle;elbow=horizontal;align=left;verticalAlign=top;endArrow=open;endSize=8;strokeColor=#FF0000;endFill=1;rounded=0;entryX=0.351;entryY=0.004;entryDx=0;entryDy=0;entryPerimeter=0;" parent="3" source="21" target="30" edge="1">
                    <mxGeometry x="-1" relative="1" as="geometry">
                        <mxPoint x="190" y="305" as="targetPoint"/>
                    </mxGeometry>
                </mxCell>
                <mxCell id="24" value="" style="endArrow=open;strokeColor=#FF0000;endFill=1;rounded=0" parent="3" target="21" edge="1">
                    <mxGeometry relative="1" as="geometry">
                        <mxPoint x="125" y="245" as="sourcePoint"/>
                    </mxGeometry>
                </mxCell>
                <mxCell id="25" value="" style="shape=line;strokeWidth=6;strokeColor=#ff0000;rotation=90" parent="3" vertex="1">
                    <mxGeometry x="130" y="127.5" width="50" height="15" as="geometry"/>
                </mxCell>
                <mxCell id="26" value="" style="edgeStyle=elbowEdgeStyle;elbow=horizontal;verticalAlign=bottom;endArrow=open;endSize=8;strokeColor=#FF0000;endFill=1;rounded=0" parent="3" source="25" edge="1">
                    <mxGeometry x="130" y="90" as="geometry">
                        <mxPoint x="130" y="135" as="targetPoint"/>
                    </mxGeometry>
                </mxCell>
                <mxCell id="69" style="edgeStyle=none;html=1;entryX=0;entryY=0.5;entryDx=0;entryDy=0;" edge="1" parent="3" source="30" target="43">
                    <mxGeometry relative="1" as="geometry"/>
                </mxCell>
                <mxCell id="30" value="Process Command" style="" parent="3" vertex="1">
                    <mxGeometry x="140" y="325" width="140" height="50" as="geometry"/>
                </mxCell>
                <mxCell id="70" value="yes" style="edgeStyle=none;html=1;entryX=0;entryY=0.431;entryDx=0;entryDy=0;entryPerimeter=0;" edge="1" parent="3" source="43" target="58">
                    <mxGeometry relative="1" as="geometry">
                        <Array as="points">
                            <mxPoint x="398" y="109"/>
                        </Array>
                    </mxGeometry>
                </mxCell>
                <mxCell id="72" value="no" style="edgeStyle=none;html=1;entryX=0.002;entryY=0.637;entryDx=0;entryDy=0;entryPerimeter=0;" edge="1" parent="3" source="43" target="64">
                    <mxGeometry relative="1" as="geometry">
                        <Array as="points">
                            <mxPoint x="398" y="494"/>
                        </Array>
                    </mxGeometry>
                </mxCell>
                <mxCell id="43" value="Permanent Action &#10;Command" style="rhombus;fillColor=#ffffc0;strokeColor=#ff0000;fontColor=#4D4D4D;" vertex="1" parent="3">
                    <mxGeometry x="315" y="325" width="165" height="50" as="geometry"/>
                </mxCell>
                <mxCell id="44" value="Permanent Action Thread" style="swimlane;whiteSpace=wrap" vertex="1" parent="3">
                    <mxGeometry x="515" y="42" width="425" height="378" as="geometry"/>
                </mxCell>
                <mxCell id="60" style="edgeStyle=none;html=1;entryX=0.5;entryY=0;entryDx=0;entryDy=0;" edge="1" parent="44" source="58" target="80">
                    <mxGeometry relative="1" as="geometry">
                        <Array as="points">
                            <mxPoint x="228" y="70"/>
                        </Array>
                    </mxGeometry>
                </mxCell>
                <mxCell id="58" value="Check Command" style="" vertex="1" parent="44">
                    <mxGeometry x="30" y="45" width="140" height="50" as="geometry"/>
                </mxCell>
                <mxCell id="62" value="yes" style="edgeStyle=none;html=1;entryX=-0.019;entryY=0.484;entryDx=0;entryDy=0;entryPerimeter=0;exitX=1;exitY=0.5;exitDx=0;exitDy=0;" edge="1" parent="44" source="59" target="61">
                    <mxGeometry x="0.0905" y="10" relative="1" as="geometry">
                        <mxPoint x="100" y="220" as="targetPoint"/>
                        <mxPoint as="offset"/>
                    </mxGeometry>
                </mxCell>
                <mxCell id="59" value="Cancel Command" style="rhombus;fillColor=#ffffc0;strokeColor=#ff0000;fontColor=#4D4D4D;" vertex="1" parent="44">
                    <mxGeometry x="32.5" y="160" width="135" height="50" as="geometry"/>
                </mxCell>
                <mxCell id="61" value="Remove Corresponding &#10;Command" style="" vertex="1" parent="44">
                    <mxGeometry x="230" y="160" width="140" height="50" as="geometry"/>
                </mxCell>
                <mxCell id="66" value="Interval execution Process" style="" vertex="1" parent="44">
                    <mxGeometry x="205" y="304" width="160" height="50" as="geometry"/>
                </mxCell>
                <mxCell id="65" value="no" style="edgeStyle=none;html=1;exitX=0.5;exitY=1;exitDx=0;exitDy=0;entryX=0.48;entryY=-0.057;entryDx=0;entryDy=0;entryPerimeter=0;" edge="1" parent="44" source="59" target="74">
                    <mxGeometry relative="1" as="geometry">
                        <mxPoint x="100" y="250" as="targetPoint"/>
                        <Array as="points">
                            <mxPoint x="100" y="215"/>
                        </Array>
                    </mxGeometry>
                </mxCell>
                <mxCell id="74" value="Add Command" style="" vertex="1" parent="44">
                    <mxGeometry x="32.5" y="244" width="140" height="50" as="geometry"/>
                </mxCell>
                <mxCell id="81" value="yes" style="edgeStyle=none;html=1;entryX=0.5;entryY=0;entryDx=0;entryDy=0;fontColor=default;" edge="1" parent="44" source="80" target="59">
                    <mxGeometry relative="1" as="geometry">
                        <Array as="points">
                            <mxPoint x="100" y="120"/>
                        </Array>
                    </mxGeometry>
                </mxCell>
                <mxCell id="80" value="Is valid command" style="rhombus;fillColor=#ffffc0;strokeColor=#ff0000;fontColor=#4D4D4D;" vertex="1" parent="44">
                    <mxGeometry x="160" y="95" width="135" height="50" as="geometry"/>
                </mxCell>
                <mxCell id="76" style="edgeStyle=none;html=1;entryX=0.996;entryY=0.641;entryDx=0;entryDy=0;entryPerimeter=0;exitX=0.514;exitY=1.108;exitDx=0;exitDy=0;exitPerimeter=0;" edge="1" parent="3" source="64" target="73">
                    <mxGeometry relative="1" as="geometry">
                        <Array as="points">
                            <mxPoint x="794" y="584"/>
                        </Array>
                    </mxGeometry>
                </mxCell>
                <mxCell id="64" value="Process Command" style="" vertex="1" parent="3">
                    <mxGeometry x="724" y="462" width="140" height="50" as="geometry"/>
                </mxCell>
                <mxCell id="71" style="edgeStyle=none;html=1;entryX=0.506;entryY=-0.01;entryDx=0;entryDy=0;entryPerimeter=0;exitX=0.465;exitY=1.019;exitDx=0;exitDy=0;exitPerimeter=0;" edge="1" parent="3" source="66" target="64">
                    <mxGeometry relative="1" as="geometry">
                        <mxPoint x="795" y="282" as="sourcePoint"/>
                    </mxGeometry>
                </mxCell>
                <mxCell id="73" value="GÃ©nÃ©ration Event" style="" vertex="1" parent="3">
                    <mxGeometry x="435" y="552" width="140" height="50" as="geometry"/>
                </mxCell>
                <mxCell id="20" value="" style="endArrow=open;strokeColor=#FF0000;endFill=1;rounded=0;exitX=1.016;exitY=0.528;exitDx=0;exitDy=0;exitPerimeter=0;entryX=-0.029;entryY=0.528;entryDx=0;entryDy=0;entryPerimeter=0;" parent="1" source="10" target="18" edge="1">
                    <mxGeometry relative="1" as="geometry">
                        <mxPoint x="340" y="478" as="sourcePoint"/>
                    </mxGeometry>
                </mxCell>
                <mxCell id="78" style="edgeStyle=none;html=1;entryX=0.995;entryY=0.485;entryDx=0;entryDy=0;entryPerimeter=0;exitX=-0.007;exitY=0.512;exitDx=0;exitDy=0;exitPerimeter=0;" edge="1" parent="1" source="73" target="77">
                    <mxGeometry relative="1" as="geometry"/>
                </mxCell>
            </root>
        </mxGraphModel>
    </diagram>
</mxfile>